# xmcd CD database file
#
# Track frame offsets:
#	210
#	14352
#	28373
#	41735
#	54756
#	67552
#	81278
#	94122
#	108679
#	122743
#	136501
#	151758
#	165857
#	177836
#	191291
#	204545
#	217358
#	230841
#	244252
#	260982
#	276367
#	289830
#
# Disc length: 4055 seconds
#
# Revision: 2
# Processed by: cddbd v1.5.2PL0 Copyright (c) Steve Scherf et al.
# Submitted via: CDex 1.51
#
DISCID=3d0fd516
DTITLE=Skillet Lickers - Volume 6 - 1934
DYEAR=2000
DGENRE=Country
TTITLE0=Back Up And Push
TTITLE1=Rufus
TTITLE2=Cumberland Gap On A Buckin' Mule
TTITLE3=Hawkins' Rag
TTITLE4=Skillet Licker Breakdown
TTITLE5=Cotton Patch
TTITLE6=Ida Red
TTITLE7=Down Yonder
TTITLE8=Git Along
TTITLE9=Whoa, Mule, Whoa
TTITLE10=Tra-Le-La-La
TTITLE11=Keep Your Gat At Home
TTITLE12=Hinkey-Dinkey-Dee
TTITLE13=I Ain't No Better Now
TTITLE14=Tanner's Rag
TTITLE15=Tanner's Hornpipe
TTITLE16=Soldier's Joy
TTITLE17=Flop-Eared Mule
TTITLE18=Prosperity And Politics - Part 1
TTITLE19=Prosperity And Politics - Part 2
TTITLE20=Practice Night With The Skillet Lickers - Part 1
TTITLE21=Practice Night With The Skillet Lickers - Part 2
EXTD=YEAR: 2000
EXTT0=
EXTT1=
EXTT2=
EXTT3=
EXTT4=
EXTT5=
EXTT6=
EXTT7=
EXTT8=
EXTT9=
EXTT10=
EXTT11=
EXTT12=
EXTT13=
EXTT14=
EXTT15=
EXTT16=
EXTT17=
EXTT18=
EXTT19=
EXTT20=
EXTT21=
PLAYORDER=
